<svg xmlns="http://www.w3.org/2000/svg" viewBox="0 0 760 330" role="img" aria-label="Single-family pipeline: four data groups feed four models, which combine into zip-level yield and IRR and a simulated portfolio" font-family="Rubik, system-ui, sans-serif" font-size="13">
  <defs>
    <marker id="a" viewBox="0 0 10 10" refX="9" refY="5" markerWidth="6" markerHeight="6" orient="auto-start-reverse"><path d="M0 0L10 5L0 10z" fill="#8a847c"/></marker>
  </defs>
  <g fill="none" stroke="#8a847c" stroke-width="1.25">
    <path d="M124 86V110" marker-end="url(#a)"/><path d="M300 86V110" marker-end="url(#a)"/>
    <path d="M476 86V110" marker-end="url(#a)"/><path d="M652 86V110" marker-end="url(#a)"/>
    <path d="M124 158V182M300 158V182M476 158V182M652 158V182M124 182H652"/>
    <path d="M300 182V206" marker-end="url(#a)"/>
    <path d="M412 230H474" marker-end="url(#a)"/>
  </g>
  <g stroke="#8a847c" stroke-width="1.25" fill="#fff">
    <rect x="42" y="40" width="164" height="46" rx="8"/><rect x="218" y="40" width="164" height="46" rx="8"/>
    <rect x="394" y="40" width="164" height="46" rx="8"/><rect x="570" y="40" width="164" height="46" rx="8"/>
    <rect x="42" y="112" width="164" height="46" rx="8"/><rect x="218" y="112" width="164" height="46" rx="8"/>
    <rect x="394" y="112" width="164" height="46" rx="8"/><rect x="570" y="112" width="164" height="46" rx="8"/>
    <rect x="188" y="207" width="224" height="46" rx="8"/>
  </g>
  <rect x="478" y="207" width="220" height="46" rx="8" fill="#f4e3db" stroke="#b4491f" stroke-width="2"/>
  <g text-anchor="middle" fill="#161616">
    <text x="124" y="67">Sales and leases</text><text x="300" y="67">Tax assessor</text>
    <text x="476" y="67">Macro and census</text><text x="652" y="67">Market fundamentals</text>
    <text x="124" y="139">Matching (CEM)</text><text x="300" y="139">Repeat-sales index</text>
    <text x="476" y="139">Price forecast</text><text x="652" y="139">Valuation (AVM)</text>
    <text x="300" y="234">Zip-level yield and IRR</text>
    <text x="588" y="234" font-weight="600">Simulated portfolio</text>
  </g>
  <text x="588" y="280" text-anchor="middle" font-size="11.5" fill="#5c5c5c">rank by forecast IRR, buy until</text>
  <text x="588" y="296" text-anchor="middle" font-size="11.5" fill="#5c5c5c">the quarterly budget runs out</text>
</svg>
